<?xml version="1.0" standalone="no"?>
<!DOCTYPE svg PUBLIC "-//W3C//DTD SVG 20010904//EN"
 "http://www.w3.org/TR/2001/REC-SVG-20010904/DTD/svg10.dtd">
<svg version="1.0" xmlns="http://www.w3.org/2000/svg"
 width="700.000000pt" height="700.000000pt" viewBox="0 0 700.000000 700.000000"
 preserveAspectRatio="xMidYMid meet">
<metadata>
Created by potrace 1.14, written by Peter Selinger 2001-2017
</metadata>
<g transform="translate(0.000000,700.000000) scale(0.100000,-0.100000)"
fill="#000000" stroke="none">
<path d="M2077 5158 c11 -18 286 -466 611 -996 l592 -962 0 -700 0 -700 205 0
205 0 0 695 0 696 548 892 c302 491 579 940 615 1000 l67 107 -237 -2 -237 -3
-466 -785 c-397 -668 -470 -785 -491 -788 -22 -2 -64 64 -493 788 l-469 790
-235 0 -234 0 19 -32z"/>
</g>
</svg>
